<?xml version="1.0" encoding="UTF-8"?>
<!DOCTYPE svg PUBLIC "-//W3C//DTD SVG 1.1//EN" "http://www.w3.org/Graphics/SVG/1.1/DTD/svg11.dtd">
<svg xmlns="http://www.w3.org/2000/svg" version="1.1" width="500px" height="500px" style="shape-rendering:geometricPrecision; text-rendering:geometricPrecision; image-rendering:optimizeQuality; fill-rule:evenodd; clip-rule:evenodd" xmlns:xlink="http://www.w3.org/1999/xlink">
<g><path style="opacity:1" fill="#fefefe" d="M -0.5,-0.5 C 166.167,-0.5 332.833,-0.5 499.5,-0.5C 499.5,166.167 499.5,332.833 499.5,499.5C 332.833,499.5 166.167,499.5 -0.5,499.5C -0.5,332.833 -0.5,166.167 -0.5,-0.5 Z"/></g>
<g><path style="opacity:1" fill="#010101" d="M 245.5,194.5 C 245.5,203.833 245.5,213.167 245.5,222.5C 234.167,222.5 222.833,222.5 211.5,222.5C 211.917,213.085 211.417,203.752 210,194.5C 204.949,186.259 198.115,184.425 189.5,189C 187.044,191.408 185.211,194.241 184,197.5C 183.5,205.827 183.334,214.16 183.5,222.5C 172.167,222.5 160.833,222.5 149.5,222.5C 149.333,211.828 149.5,201.161 150,190.5C 155.063,173.77 165.896,162.604 182.5,157C 210.857,150.931 231.357,160.764 244,186.5C 245.079,189.063 245.579,191.729 245.5,194.5 Z"/></g>
<g><path style="opacity:1" fill="#030303" d="M 330.5,222.5 C 319.167,222.5 307.833,222.5 296.5,222.5C 296.828,211.321 296.495,200.321 295.5,189.5C 286.582,189.817 277.749,189.484 269,188.5C 267.886,183.609 267.386,178.609 267.5,173.5C 267.386,168.391 267.886,163.391 269,158.5C 298.095,157.338 327.261,157.172 356.5,158C 357,158.5 357.5,159 358,159.5C 358.947,169.267 358.613,178.934 357,188.5C 348.251,189.484 339.418,189.817 330.5,189.5C 330.5,200.5 330.5,211.5 330.5,222.5 Z"/></g>
<g><path style="opacity:1" fill="#fbfbfb" d="M 211.5,222.5 C 202.167,222.5 192.833,222.5 183.5,222.5C 183.334,214.16 183.5,205.827 184,197.5C 185.211,194.241 187.044,191.408 189.5,189C 198.115,184.425 204.949,186.259 210,194.5C 211.417,203.752 211.917,213.085 211.5,222.5 Z"/></g>
<g><path style="opacity:1" fill="#1a1a1a" d="M 295.5,189.5 C 296.495,200.321 296.828,211.321 296.5,222.5C 307.833,222.5 319.167,222.5 330.5,222.5C 345.182,222.167 359.848,222.501 374.5,223.5C 291.167,224.833 207.833,224.833 124.5,223.5C 132.807,222.502 141.14,222.169 149.5,222.5C 160.833,222.5 172.167,222.5 183.5,222.5C 192.833,222.5 202.167,222.5 211.5,222.5C 222.833,222.5 234.167,222.5 245.5,222.5C 245.5,213.167 245.5,203.833 245.5,194.5C 246.494,203.652 246.827,212.985 246.5,222.5C 262.833,222.5 279.167,222.5 295.5,222.5C 295.5,211.5 295.5,200.5 295.5,189.5 Z"/></g>
<g><path style="opacity:1" fill="#171717" d="M 116.5,242.5 C 118.792,242.244 120.959,242.577 123,243.5C 123.499,248.489 123.666,253.489 123.5,258.5C 122.5,258.5 121.5,258.5 120.5,258.5C 119.833,253.167 119.167,253.167 118.5,258.5C 117.5,258.5 116.5,258.5 115.5,258.5C 115.267,253.105 115.6,247.772 116.5,242.5 Z"/></g>
<g><path style="opacity:1" fill="#1c1c1c" d="M 137.5,242.5 C 138.5,242.5 139.5,242.5 140.5,242.5C 140.5,246.833 140.5,251.167 140.5,255.5C 142.167,255.5 143.833,255.5 145.5,255.5C 145.5,256.5 145.5,257.5 145.5,258.5C 142.833,258.5 140.167,258.5 137.5,258.5C 137.5,253.167 137.5,247.833 137.5,242.5 Z"/></g>
<g><path style="opacity:1" fill="#171717" d="M 179.5,242.5 C 181.792,242.244 183.959,242.577 186,243.5C 186.499,248.489 186.666,253.489 186.5,258.5C 185.5,258.5 184.5,258.5 183.5,258.5C 182.833,253.167 182.167,253.167 181.5,258.5C 180.5,258.5 179.5,258.5 178.5,258.5C 178.267,253.105 178.6,247.772 179.5,242.5 Z"/></g>
<g><path style="opacity:1" fill="#171717" d="M 202.5,242.5 C 206.182,242.335 209.848,242.501 213.5,243C 214,243.5 214.5,244 215,244.5C 215.499,249.155 215.666,253.821 215.5,258.5C 214.5,258.5 213.5,258.5 212.5,258.5C 212.5,254.167 212.5,249.833 212.5,245.5C 211.5,245.5 210.5,245.5 209.5,245.5C 209.5,249.833 209.5,254.167 209.5,258.5C 208.5,258.5 207.5,258.5 206.5,258.5C 206.5,254.167 206.5,249.833 206.5,245.5C 205.5,245.5 204.5,245.5 203.5,245.5C 203.5,249.833 203.5,254.167 203.5,258.5C 202.5,258.5 201.5,258.5 200.5,258.5C 200.334,253.821 200.501,249.155 201,244.5C 201.717,243.956 202.217,243.289 202.5,242.5 Z"/></g>
<g><path style="opacity:1" fill="#161616" d="M 229.5,242.5 C 231.833,242.5 234.167,242.5 236.5,242.5C 236.5,243.5 236.5,244.5 236.5,245.5C 235.167,245.5 233.833,245.5 232.5,245.5C 232.5,246.5 232.5,247.5 232.5,248.5C 233.5,248.5 234.5,248.5 235.5,248.5C 235.5,249.5 235.5,250.5 235.5,251.5C 234.5,251.5 233.5,251.5 232.5,251.5C 232.5,252.833 232.5,254.167 232.5,255.5C 233.833,255.5 235.167,255.5 236.5,255.5C 236.5,256.5 236.5,257.5 236.5,258.5C 234.167,258.5 231.833,258.5 229.5,258.5C 229.5,253.167 229.5,247.833 229.5,242.5 Z"/></g>
<g><path style="opacity:1" fill="#181818" d="M 250.5,242.5 C 253.167,242.5 255.833,242.5 258.5,242.5C 258.5,243.5 258.5,244.5 258.5,245.5C 256.833,245.5 255.167,245.5 253.5,245.5C 253.5,246.5 253.5,247.5 253.5,248.5C 254.833,248.5 256.167,248.5 257.5,248.5C 257.5,249.5 257.5,250.5 257.5,251.5C 256.167,251.5 254.833,251.5 253.5,251.5C 253.5,252.833 253.5,254.167 253.5,255.5C 255.167,255.5 256.833,255.5 258.5,255.5C 258.5,256.5 258.5,257.5 258.5,258.5C 255.833,258.5 253.167,258.5 250.5,258.5C 250.5,253.167 250.5,247.833 250.5,242.5 Z"/></g>
<g><path style="opacity:1" fill="#111111" d="M 273.5,242.5 C 276.044,242.104 278.211,242.771 280,244.5C 280.499,249.155 280.666,253.821 280.5,258.5C 279.5,258.5 278.5,258.5 277.5,258.5C 277.937,253.639 277.437,248.972 276,244.5C 274.563,248.972 274.063,253.639 274.5,258.5C 273.5,258.5 272.5,258.5 271.5,258.5C 271.334,253.821 271.501,249.155 272,244.5C 272.717,243.956 273.217,243.289 273.5,242.5 Z"/></g>
<g><path style="opacity:1" fill="#151515" d="M 319.5,244.5 C 318.5,244.5 317.5,244.5 316.5,244.5C 316.5,249.167 316.5,253.833 316.5,258.5C 315.5,258.5 314.5,258.5 313.5,258.5C 313.83,252.99 313.164,247.657 311.5,242.5C 314.698,241.964 317.365,242.631 319.5,244.5 Z"/></g>
<g><path style="opacity:1" fill="#202020" d="M 333.5,242.5 C 336.365,242.055 338.865,242.722 341,244.5C 341.667,248.5 341.667,252.5 341,256.5C 338.333,259.167 335.667,259.167 333,256.5C 332.227,251.748 332.393,247.081 333.5,242.5 Z"/></g>
<g><path style="opacity:1" fill="#161616" d="M 354.5,242.5 C 357.685,242.02 360.519,242.686 363,244.5C 362.367,249.145 362.534,253.812 363.5,258.5C 362.5,258.5 361.5,258.5 360.5,258.5C 360.949,256.023 360.283,254.023 358.5,252.5C 357.534,254.396 357.201,256.396 357.5,258.5C 356.5,258.5 355.5,258.5 354.5,258.5C 354.5,253.167 354.5,247.833 354.5,242.5 Z"/></g>
<g><path style="opacity:1" fill="#181818" d="M 378.5,242.5 C 380.792,242.244 382.959,242.577 385,243.5C 385.667,247.833 385.667,252.167 385,256.5C 383.135,258.673 380.969,259.007 378.5,257.5C 377.221,252.449 377.221,247.449 378.5,242.5 Z"/></g>
<g><path style="opacity:1" fill="#fefefe" d="M 118.5,245.5 C 119.693,245.97 120.36,246.97 120.5,248.5C 120.167,249.5 119.833,250.5 119.5,251.5C 118.534,249.604 118.201,247.604 118.5,245.5 Z"/></g>
<g><path style="opacity:1" fill="#fefefe" d="M 181.5,245.5 C 182.693,245.97 183.36,246.97 183.5,248.5C 183.167,249.5 182.833,250.5 182.5,251.5C 181.534,249.604 181.201,247.604 181.5,245.5 Z"/></g>
<g><path style="opacity:1" fill="#939393" d="M 319.5,244.5 C 317.953,249.054 316.953,253.721 316.5,258.5C 316.5,253.833 316.5,249.167 316.5,244.5C 317.5,244.5 318.5,244.5 319.5,244.5 Z"/></g>
<g><path style="opacity:1" fill="#fcfcfc" d="M 335.5,245.5 C 336.777,246.694 337.444,248.36 337.5,250.5C 337.167,252.167 336.833,253.833 336.5,255.5C 335.513,252.232 335.18,248.898 335.5,245.5 Z"/></g>
<g><path style="opacity:1" fill="#d1d1d1" d="M 357.5,244.5 C 360.084,245.048 361.084,246.715 360.5,249.5C 359.5,249.5 358.5,249.5 357.5,249.5C 357.5,247.833 357.5,246.167 357.5,244.5 Z"/></g>
<g><path style="opacity:1" fill="#fefefe" d="M 380.5,245.5 C 381.777,246.694 382.444,248.36 382.5,250.5C 382.167,252.167 381.833,253.833 381.5,255.5C 380.513,252.232 380.18,248.898 380.5,245.5 Z"/></g>
<g><path style="opacity:1" fill="#070707" d="M 158.5,249.5 C 160.604,249.201 162.604,249.534 164.5,250.5C 163.5,250.833 162.5,251.167 161.5,251.5C 159.97,251.36 158.97,250.693 158.5,249.5 Z"/></g>
<g><path style="opacity:1" fill="#1c1c1c" d="M 330.5,276.5 C 319.167,276.5 307.833,276.5 296.5,276.5C 296.5,296.167 296.5,315.833 296.5,335.5C 295.503,316.007 295.17,296.34 295.5,276.5C 279.167,276.5 262.833,276.5 246.5,276.5C 246.83,296.007 246.497,315.341 245.5,334.5C 245.5,315.167 245.5,295.833 245.5,276.5C 213.5,276.5 181.5,276.5 149.5,276.5C 141.14,276.831 132.807,276.498 124.5,275.5C 207.833,274.167 291.167,274.167 374.5,275.5C 359.848,276.499 345.182,276.833 330.5,276.5 Z"/></g>
<g><path style="opacity:1" fill="#000000" d="M 149.5,276.5 C 181.5,276.5 213.5,276.5 245.5,276.5C 245.5,295.833 245.5,315.167 245.5,334.5C 245.586,335.496 245.252,336.329 244.5,337C 233.923,337.819 223.423,337.652 213,336.5C 211.536,322.932 211.036,309.265 211.5,295.5C 202.348,294.506 193.015,294.173 183.5,294.5C 183.5,307.833 183.5,321.167 183.5,334.5C 183.586,335.496 183.252,336.329 182.5,337C 171.59,337.82 160.757,337.653 150,336.5C 149.5,316.503 149.333,296.503 149.5,276.5 Z"/></g>
<g><path style="opacity:1" fill="#000000" d="M 330.5,276.5 C 330.821,296.546 330.488,316.546 329.5,336.5C 324,336.833 318.5,337.167 313,337.5C 307.124,337.495 301.624,336.829 296.5,335.5C 296.5,315.833 296.5,296.167 296.5,276.5C 307.833,276.5 319.167,276.5 330.5,276.5 Z"/></g>
<g><path style="opacity:1" fill="#a4a4a4" d="M 211.5,295.5 C 202.5,295.5 193.5,295.5 184.5,295.5C 184.829,308.677 184.495,321.677 183.5,334.5C 183.5,321.167 183.5,307.833 183.5,294.5C 193.015,294.173 202.348,294.506 211.5,295.5 Z"/></g>
</svg>
